<?xml version="1.0" standalone="no"?>
<!DOCTYPE svg PUBLIC "-//W3C//DTD SVG 20010904//EN"
 "http://www.w3.org/TR/2001/REC-SVG-20010904/DTD/svg10.dtd">
<svg version="1.0" xmlns="http://www.w3.org/2000/svg"
 width="450.000000pt" height="367.000000pt" viewBox="0 0 450.000000 367.000000"
 preserveAspectRatio="xMidYMid meet">

<g transform="translate(0.000000,367.000000) scale(0.100000,-0.100000)"
fill="#000000" stroke="none">
<path d="M2314 3466 c-98 -43 -155 -140 -160 -275 l-4 -85 -56 -30 c-98 -52
-164 -144 -198 -270 -8 -32 -17 -60 -19 -63 -9 -9 -307 -45 -322 -39 -9 3 -15
19 -15 41 0 24 -9 44 -29 67 -24 27 -36 33 -71 33 -35 0 -47 -6 -71 -33 -40
-45 -40 -93 1 -134 17 -16 30 -31 30 -33 0 -2 -62 -65 -137 -140 -96 -95 -134
-138 -123 -142 27 -11 112 -97 137 -140 14 -24 33 -65 43 -92 17 -44 18 -52 4
-97 -12 -39 -14 -80 -9 -194 7 -153 20 -239 66 -410 7 -25 16 -63 21 -85 13
-50 71 -109 123 -124 22 -6 68 -11 103 -11 49 0 69 -5 93 -23 l31 -22 -39 -5
c-41 -5 -40 -4 -26 -79 l6 -33 -60 46 -60 47 -67 -7 c-70 -7 -82 -15 -142 -99
l-22 -29 -26 52 c-15 29 -31 50 -39 47 -6 -2 -79 -16 -162 -30 -202 -35 -185
-28 -185 -86 0 -27 -4 -49 -9 -49 -5 0 -36 15 -68 34 l-58 35 -67 -17 c-64
-16 -67 -19 -99 -71 -28 -47 -34 -52 -40 -35 -4 10 -8 29 -8 42 -1 17 -5 22
-18 18 -10 -3 -53 -15 -96 -26 -63 -17 -362 -118 -430 -145 -22 -9 -22 -8 7
-53 13 -20 47 -105 76 -188 l52 -151 80 -56 80 -55 62 20 c33 12 66 25 72 29
6 5 19 36 29 69 10 32 22 57 26 54 5 -3 9 -27 9 -55 0 -27 2 -49 4 -49 8 0
200 61 204 64 2 2 -4 18 -13 36 l-16 32 45 -27 c44 -26 48 -26 102 -14 66 15
77 24 126 116 l37 68 -16 63 c-9 35 -21 62 -28 62 -7 0 -50 -7 -95 -16 -72
-13 -103 -13 -89 0 2 2 42 17 89 34 82 29 85 31 84 60 -1 24 4 32 33 46 64 30
59 40 98 -173 8 -46 15 -110 15 -142 0 -58 0 -58 28 -53 15 2 60 11 100 18 40
8 76 16 79 20 3 3 -2 24 -12 48 -16 41 -65 280 -65 320 0 15 8 18 50 18 41 0
50 -3 50 -17 1 -40 28 -231 34 -242 4 -6 34 -31 67 -57 l61 -47 66 7 c63 6 70
9 105 49 l38 42 -6 -38 -6 -39 63 6 c156 14 266 18 442 17 175 -1 188 0 181
17 -4 9 -10 57 -13 105 l-5 89 51 51 c50 51 51 54 54 117 l3 65 55 27 c30 15
58 24 62 20 4 -4 0 -82 -9 -174 l-16 -166 51 -84 52 -85 72 -6 73 -7 52 58
c57 62 64 59 33 -13 -14 -34 -16 -47 -7 -50 6 -2 91 -15 187 -30 96 -15 186
-29 199 -32 23 -6 24 -5 18 41 -4 25 -5 46 -3 46 2 0 20 -25 40 -55 20 -30 40
-55 44 -55 32 -1 404 -97 519 -135 7 -2 24 16 39 40 14 25 28 45 31 45 3 0 -7
-20 -21 -44 -16 -28 -22 -47 -16 -51 12 -8 181 -65 191 -65 4 0 10 21 13 48
10 69 99 322 114 322 6 0 33 -13 59 -29 34 -21 50 -26 54 -18 4 7 10 53 14
102 l7 90 -171 59 c-94 32 -173 57 -175 55 -2 -2 -27 -41 -55 -87 -56 -89 -56
-88 22 -95 27 -3 53 -9 57 -13 5 -5 -6 -47 -23 -94 l-32 -85 -50 3 c-76 4
-135 22 -135 41 0 32 79 283 99 315 12 18 21 36 21 39 0 7 -175 60 -250 76
-30 6 -112 25 -182 41 -70 17 -134 30 -142 30 -11 0 -16 -14 -18 -57 l-3 -58
-48 66 c-48 68 -55 72 -139 84 -45 7 -51 5 -110 -39 -34 -25 -64 -44 -66 -41
-3 2 1 25 8 50 7 25 11 47 9 50 -3 2 -54 9 -114 15 -61 6 -129 13 -153 16
l-44 5 39 29 c33 26 44 29 84 24 62 -8 147 17 181 53 35 38 46 61 57 124 5 30
16 74 24 99 41 126 65 435 43 565 -7 47 -5 56 33 131 38 76 95 142 147 172 17
10 7 24 -119 150 l-139 139 31 31 c62 61 31 157 -55 169 -67 9 -114 -38 -114
-113 0 -13 -4 -25 -10 -29 -5 -3 -67 1 -137 10 -206 25 -189 19 -202 70 -42
167 -135 277 -273 326 -21 7 -38 16 -38 20 0 18 47 39 85 39 53 0 98 -29 137
-87 50 -74 159 -178 219 -209 47 -25 65 -29 144 -29 74 0 98 4 138 23 26 13
47 27 47 31 0 5 -24 11 -52 14 -115 12 -235 81 -289 164 -40 65 -38 71 24 72
28 0 72 7 97 14 l45 14 -41 11 c-56 16 -114 61 -144 111 -45 77 -85 125 -120
145 -44 26 -126 27 -163 3 -20 -13 -27 -14 -27 -4 0 7 5 18 12 25 16 16 1 15
-38 -2z m-14 -62 c-6 -14 -10 -35 -10 -47 l0 -21 16 22 c41 59 166 82 219 41
14 -12 52 -59 82 -105 30 -46 60 -84 66 -84 5 0 8 -3 5 -6 -10 -9 -65 24 -83
48 -15 22 -16 20 -10 -41 12 -139 80 -231 212 -288 44 -19 50 -23 24 -19 -57
10 -147 56 -183 94 -19 20 -56 75 -84 121 -27 46 -64 96 -81 112 -39 34 -40
39 -10 39 41 0 27 28 -19 39 -68 17 -108 13 -168 -18 l-56 -30 0 37 c0 40 25
85 62 114 29 23 29 23 18 -8z m133 -111 c-7 -2 -19 -2 -25 0 -7 3 -2 5 12 5
14 0 19 -2 13 -5z m-54 -7 c-2 -1 -19 -8 -36 -14 -37 -12 -45 -6 -10 8 22 9
54 13 46 6z m-79 -30 c0 -2 -8 -10 -17 -17 -16 -13 -17 -12 -4 4 13 16 21 21
21 13z m-127 -225 c-13 -11 -23 -22 -23 -25 0 -4 10 -2 23 4 12 6 0 -9 -26
-34 -27 -26 -55 -46 -62 -46 -7 0 -15 -7 -19 -15 -3 -8 -4 -15 -1 -15 7 0 80
43 98 58 9 9 17 10 17 4 0 -20 -214 -142 -227 -128 -17 17 55 129 111 171 51
39 153 63 109 26z m140 8 c66 -18 147 -105 175 -187 l11 -32 -87 45 c-48 24
-111 63 -140 85 -45 35 -56 39 -70 29 -16 -12 -16 -12 -1 5 16 17 19 16 65
-17 52 -37 114 -71 119 -65 2 2 -13 14 -32 28 -19 14 -52 40 -72 59 -20 18
-28 28 -18 21 9 -7 21 -10 25 -6 4 4 -1 13 -11 20 -35 26 -22 31 36 15z m-56
-161 c16 -18 16 -18 -12 -4 -16 8 -33 12 -38 9 -6 -3 -7 -2 -4 4 10 16 35 11
54 -9z m631 -5 c-10 -2 -28 -2 -40 0 -13 2 -5 4 17 4 22 1 32 -1 23 -4z m-739
-30 c-12 -15 -12 -16 6 -9 36 13 39 12 42 -29 5 -50 -13 -94 -43 -105 -12 -5
-68 -7 -123 -5 l-101 3 20 -25 c11 -14 23 -43 26 -63 6 -37 33 -60 70 -60 9 0
12 -5 8 -12 -4 -7 -3 -8 4 -4 18 11 71 -22 77 -47 4 -13 4 -48 2 -78 -3 -53
-3 -53 -5 13 -2 57 -5 69 -24 82 -38 27 -45 20 -50 -46 -3 -35 -8 -70 -12 -78
-4 -11 3 -21 24 -33 37 -22 39 -37 4 -37 -16 0 -23 -4 -18 -12 4 -7 3 -8 -5
-4 -6 4 -9 12 -6 17 4 5 -3 9 -14 9 -10 0 -31 14 -44 30 -14 17 -30 30 -36 30
-21 0 -28 39 -35 181 -7 149 -4 179 19 179 19 0 191 88 205 105 7 8 15 15 17
15 3 0 -1 -8 -8 -17z m284 -72 c34 -16 71 -32 81 -35 18 -6 18 -14 13 -104 -4
-53 -7 -127 -7 -164 l0 -67 -46 -35 c-26 -20 -50 -33 -55 -30 -5 3 -6 -2 -2
-12 5 -14 3 -15 -17 -4 -15 8 -20 8 -16 1 4 -6 3 -11 -3 -11 -5 0 -16 -3 -25
-6 -28 -11 -17 20 14 41 23 15 29 25 24 40 -3 11 -8 46 -11 78 -3 31 -7 57 -9
57 -2 0 -14 -5 -28 -12 -27 -12 -33 -31 -39 -123 -3 -44 -4 -42 -5 15 -1 36 1
75 4 88 7 24 58 57 74 47 6 -3 10 -1 10 5 0 7 7 10 15 7 8 -4 17 -2 20 3 3 5
-3 10 -12 13 -10 2 -5 3 11 3 26 -1 31 3 40 39 6 22 17 50 24 62 6 12 12 24
12 26 0 2 -43 3 -95 1 -52 -2 -106 1 -119 6 -28 10 -50 67 -44 115 3 30 7 32
43 19 18 -7 19 -6 5 11 -9 11 5 5 33 -14 26 -18 75 -45 110 -60z m-953 19 c55
-55 -24 -136 -82 -83 -40 36 -10 98 50 102 6 1 21 -8 32 -19z m1566 -5 c25
-25 26 -52 3 -81 -13 -16 -78 -11 -89 6 -17 27 -11 68 12 84 31 22 45 20 74
-9z m-1482 -198 c39 -70 45 -88 33 -93 -19 -7 -60 14 -52 27 6 8 -8 13 -28 10
-4 -1 -3 8 4 20 10 19 9 21 -5 16 -18 -7 -32 8 -16 18 18 11 11 23 -10 18 -22
-6 -26 7 -8 25 9 9 7 12 -12 12 -25 0 -25 0 5 24 17 14 33 21 36 18 4 -4 28
-46 53 -95z m863 87 c-3 -3 -12 -4 -19 -1 -8 3 -5 6 6 6 11 1 17 -2 13 -5z
m-284 -25 c68 -19 84 -20 119 -10 22 7 42 10 45 7 10 -10 -81 -28 -111 -22
-40 8 -154 44 -142 45 5 1 45 -9 89 -20z m210 4 c-7 -2 -19 -2 -25 0 -7 3 -2
5 12 5 14 0 19 -2 13 -5z m-306 -89 c-3 -3 -12 -4 -19 -1 -8 3 -5 6 6 6 11 1
17 -2 13 -5z m836 -61 c27 -30 17 -38 -21 -16 -26 15 -29 20 -19 41 7 16 13
19 15 11 3 -8 14 -24 25 -36z m-705 -102 l-2 -106 -3 104 c-2 62 -9 111 -16
120 -11 14 -10 14 6 2 14 -11 17 -29 15 -120z m105 117 c-4 -7 -11 -49 -14
-93 l-6 -80 -1 73 c-2 65 8 112 24 112 3 0 2 -6 -3 -12z m-458 -49 c8 -15 15
-29 15 -31 0 -2 -20 -4 -43 -5 -24 -1 -60 -8 -80 -17 -21 -8 -37 -11 -37 -7 0
9 38 26 75 35 11 2 -3 3 -32 1 -39 -3 -55 1 -67 14 -15 17 -13 19 41 31 32 7
63 13 68 14 23 6 47 -8 60 -35z m932 18 c39 -12 42 -14 27 -29 -9 -8 -17 -26
-17 -39 l-2 -24 -39 19 c-21 11 -57 20 -81 20 -40 1 -42 3 -33 21 26 50 61 57
145 32z m-1192 -7 c-3 -5 -11 -10 -16 -10 -6 0 -7 5 -4 10 3 6 11 10 16 10 6
0 7 -4 4 -10z m83 -52 c4 -20 -30 -40 -52 -32 -16 6 -22 35 -9 48 13 13 58 1
61 -16z m1213 15 c0 -5 2 -16 4 -26 2 -9 -1 -15 -5 -12 -5 3 -11 1 -15 -5 -14
-23 -60 7 -49 33 6 17 63 25 65 10z m-1279 -91 c-1 -2 -18 -17 -39 -33 -21
-17 -45 -42 -54 -56 l-17 -26 -17 32 c-21 42 -14 62 42 111 l46 40 20 -32 c11
-18 19 -34 19 -36z m1382 14 c38 -35 45 -65 23 -101 -11 -19 -15 -17 -69 37
-51 51 -55 58 -41 70 11 8 14 9 10 1 -5 -7 10 -30 37 -57 44 -44 64 -46 51 -6
-3 10 -24 33 -46 50 -21 18 -39 38 -39 46 0 20 27 5 74 -40z m-1214 -7 c12
-29 11 -32 -16 -54 l-29 -23 -14 41 c-13 38 -13 41 9 59 26 21 33 18 50 -23z
m994 25 c19 -18 20 -33 6 -70 l-11 -28 -26 26 c-24 24 -25 29 -13 57 14 35 22
38 44 15z m-710 -162 c22 -14 64 -38 91 -54 28 -15 45 -28 40 -28 -18 0 -108
51 -170 97 l-60 44 47 -44 c25 -24 85 -63 133 -87 47 -25 91 -51 96 -60 8 -13
10 -13 19 2 6 10 30 26 54 37 68 29 156 89 154 103 -2 7 4 12 13 10 9 -1 23 6
30 15 13 17 13 17 -6 3 -19 -14 -19 -14 -6 2 7 10 17 16 21 13 5 -3 25 14 45
37 36 42 37 43 30 13 -11 -48 -67 -117 -137 -166 -25 -18 -30 -19 -18 -4 14
17 14 18 -8 6 -12 -7 -20 -16 -17 -21 3 -5 0 -12 -6 -16 -8 -4 -9 -3 -5 4 11
18 -1 15 -50 -14 -55 -33 -57 -41 -3 -13 23 11 39 17 36 12 -3 -5 -32 -21 -65
-37 -63 -30 -96 -30 -126 0 -9 8 -16 12 -16 8 0 -4 -6 0 -13 11 -9 11 -19 15
-27 10 -9 -6 -11 -4 -5 5 6 10 4 12 -11 6 -10 -4 -15 -4 -11 0 9 9 -30 37 -42
29 -5 -3 -13 0 -17 6 -5 8 -3 9 7 4 11 -6 11 -5 3 4 -6 7 -19 13 -28 15 -24 3
-95 75 -117 118 -36 69 -22 73 42 13 34 -31 80 -68 103 -83z m102 93 c-3 -9
-11 -13 -16 -10 -8 5 -7 11 1 21 14 18 24 11 15 -11z m-488 -16 l24 -29 -25 0
c-14 0 -32 -3 -40 -6 -10 -3 -20 3 -27 16 -28 53 29 69 68 19z m627 22 c3 -5
1 -12 -5 -16 -5 -3 -10 1 -10 9 0 18 6 21 15 7z m593 0 c12 -7 12 -12 0 -33
-12 -23 -16 -24 -46 -14 -31 11 -32 12 -17 34 17 23 40 28 63 13z m-1029 -47
c35 -79 184 -206 319 -273 l62 -31 0 -100 c0 -55 4 -100 8 -100 13 0 173 131
242 199 71 70 70 69 -40 -11 -71 -52 -160 -104 -160 -94 0 3 31 25 69 50 87
56 96 70 23 34 -31 -15 -70 -30 -87 -34 l-30 -7 25 20 c14 10 57 41 95 68 75
53 165 139 165 157 0 7 -7 5 -17 -4 -97 -82 -195 -148 -219 -148 -5 0 19 16
52 36 33 19 86 57 118 85 32 27 62 47 66 44 5 -3 14 4 20 16 9 16 9 20 0 14
-6 -4 5 14 24 40 20 25 36 51 36 56 0 17 27 9 49 -15 30 -32 24 -59 -32 -146
-49 -77 -221 -250 -330 -334 l-77 -58 -57 43 c-70 54 -243 208 -243 216 0 3
21 -14 48 -38 26 -25 83 -73 127 -108 44 -36 88 -71 98 -79 16 -14 17 -9 17
89 l0 104 -83 40 c-104 51 -247 166 -247 199 0 5 -3 7 -6 3 -10 -9 50 -88 107
-142 30 -28 87 -72 126 -99 40 -27 71 -51 69 -54 -7 -6 -77 18 -124 44 -62 33
-42 12 33 -37 36 -23 63 -44 61 -47 -7 -7 -87 42 -162 99 -36 27 -71 46 -77
43 -7 -4 -9 -4 -5 1 4 4 -6 18 -22 31 -28 24 -95 124 -118 177 -11 25 -9 30
14 52 34 32 48 31 63 -1z m280 -5 c17 -6 31 -15 31 -20 0 -13 -5 -11 -42 11
-37 23 -35 25 11 9z m162 -19 c6 0 20 5 32 11 19 9 18 7 -3 -10 -35 -28 -50
-26 -49 7 1 16 3 20 6 10 2 -10 9 -18 14 -18z m-601 -70 c0 -43 -3 -50 -20
-50 -16 0 -20 7 -20 35 0 19 -4 35 -10 35 -5 0 -10 -7 -10 -15 0 -30 -38 -55
-84 -55 -25 0 -47 -4 -51 -9 -6 -11 92 -9 116 3 13 6 19 -2 28 -36 7 -24 14
-48 17 -55 4 -8 -11 -10 -53 -6 -64 5 -115 -11 -147 -46 -10 -11 -23 -18 -29
-14 -6 3 -7 1 -3 -5 4 -8 17 -6 43 5 51 21 129 13 193 -20 l52 -27 19 24 c11
14 39 32 64 42 l45 17 -45 46 c-25 25 -45 54 -45 66 1 20 1 20 16 0 24 -33 45
-58 71 -87 l25 -26 -49 -22 c-26 -11 -62 -34 -79 -51 l-30 -29 -33 24 c-77 57
-188 55 -272 -6 l-42 -30 6 66 c11 121 73 198 197 245 29 11 56 18 60 16 3 -2
12 0 20 6 36 22 50 11 50 -41z m720 29 c-26 -22 -114 -69 -127 -69 -4 0 21 16
56 35 36 19 69 39 75 45 5 5 12 10 16 10 3 -1 -6 -10 -20 -21z m333 -31 l-11
-33 -1 45 c-1 33 2 41 11 32 8 -8 8 -20 1 -44z m72 42 c4 -6 10 -8 15 -5 15 9
101 -24 155 -59 66 -44 106 -116 113 -206 5 -63 5 -64 -14 -46 -47 48 -156 73
-229 53 -25 -7 -28 -6 -17 5 15 15 107 18 162 5 l35 -8 -30 26 c-42 35 -88 48
-151 43 -44 -4 -52 -2 -42 9 10 13 14 30 17 80 1 20 2 21 30 7 32 -16 116 -15
100 1 -5 5 -27 8 -48 6 -32 -2 -42 2 -60 26 -45 60 -43 60 -62 17 l-18 -39 0
48 c-1 40 2 47 18 47 11 0 23 -5 26 -10z m-1085 -10 c0 -5 -4 -10 -10 -10 -5
0 -10 5 -10 10 0 6 5 10 10 10 6 0 10 -4 10 -10z m1081 -72 c-6 -18 -22 -46
-36 -63 l-24 -30 12 35 c7 19 17 38 24 43 6 4 15 22 19 40 4 17 9 26 11 20 3
-7 0 -27 -6 -45z m-92 -21 c-6 -12 -32 -43 -56 -68 l-45 -47 32 -7 c18 -4 48
-22 67 -41 34 -35 49 -41 55 -25 2 5 10 11 18 13 8 2 18 8 22 13 5 6 8 6 8 -2
0 -6 -15 -20 -32 -32 l-33 -20 -30 29 c-16 16 -52 39 -79 50 l-48 22 33 32
c19 17 35 35 36 39 2 4 13 22 25 41 24 37 45 39 27 3z m-1021 -32 c7 -14 12
-29 12 -33 -1 -10 -40 38 -40 49 0 18 17 8 28 -16z m587 -95 c-3 -5 -12 -10
-18 -10 -7 0 -6 4 3 10 19 12 23 12 15 0z m-343 -57 c15 -15 28 -31 28 -37 0
-5 -11 1 -25 14 -14 13 -25 20 -25 16 0 -16 62 -96 96 -124 l35 -29 -70 -7
c-39 -4 -71 -11 -71 -16 0 -5 15 -6 33 -4 17 3 50 1 72 -4 l40 -10 -40 -1
c-42 -1 -157 -18 -188 -27 -9 -3 -15 -10 -12 -15 4 -5 -3 -9 -14 -9 -25 0 -45
55 -45 132 -1 51 2 61 30 88 26 27 89 58 118 60 6 0 23 -12 38 -27z m688 2
c14 -7 36 -25 50 -40 21 -22 25 -36 24 -83 0 -31 -6 -74 -13 -94 -10 -31 -17
-38 -39 -38 -20 0 -23 3 -13 9 18 12 2 16 -124 35 -68 9 -84 14 -67 20 13 5
44 5 69 1 30 -4 43 -3 39 4 -4 5 -38 13 -77 17 l-71 7 31 24 c34 27 101 110
101 126 0 5 -21 -8 -47 -28 l-48 -38 50 51 c54 55 72 59 135 27z m-1120 -15
c0 -5 10 -10 21 -10 18 0 89 -35 89 -44 0 -2 -21 0 -46 4 -34 5 -47 4 -51 -6
-3 -8 -12 -14 -21 -14 -26 0 -6 -11 30 -17 48 -7 48 -13 -1 -13 -46 0 -86 -17
-115 -49 -27 -30 -16 -34 29 -11 27 14 57 20 95 19 l55 -2 -55 -7 c-69 -10
-98 -21 -139 -56 l-34 -28 5 59 c2 33 12 77 23 98 24 52 115 112 115 77z
m1407 4 c-3 -3 -12 -4 -19 -1 -8 3 -5 6 6 6 11 1 17 -2 13 -5z m94 -17 c47
-31 79 -98 79 -166 0 -42 -3 -52 -12 -43 -6 6 -13 22 -15 34 -2 13 -19 38 -38
56 -30 27 -42 32 -87 33 l-53 1 45 12 c42 12 44 13 23 24 -12 7 -41 12 -65 13
l-43 0 55 29 c68 35 70 35 111 7z m-1010 -34 c13 -16 12 -17 -3 -4 -10 7 -18
15 -18 17 0 8 8 3 21 -13z m-309 -74 c1 -32 0 -59 -4 -59 -5 0 -8 26 -8 58 0
32 -6 64 -12 72 -11 12 -10 12 4 2 11 -9 17 -32 20 -73z m1088 19 c-4 -49 -5
-50 -8 -14 -3 34 2 66 10 66 2 0 1 -24 -2 -52z m-735 22 c10 -11 16 -20 13
-20 -3 0 -13 9 -23 20 -10 11 -16 20 -13 20 3 0 13 -9 23 -20z m395 12 c0 -4
-10 -13 -22 -21 -23 -14 -23 -14 -4 8 20 22 26 25 26 13z m-50 -36 c0 -2 -8
-10 -17 -17 -16 -13 -17 -12 -4 4 13 16 21 21 21 13z m619 -52 c22 -8 42 -22
45 -29 3 -10 -7 -8 -35 7 -22 11 -66 24 -97 28 l-57 7 52 2 c29 0 70 -6 92
-15z m-1409 -55 c13 -7 13 -8 -1 -9 -22 0 -111 -59 -105 -69 8 -12 -19 -33
-28 -23 -4 4 -6 3 -5 -3 2 -5 -8 -34 -23 -63 l-27 -53 -6 45 c-19 124 34 199
133 188 26 -2 54 -8 62 -13z m1383 10 c63 -33 90 -104 72 -196 l-7 -38 -13 30
c-7 17 -10 33 -8 38 2 4 1 7 -4 7 -4 0 -20 16 -36 35 -21 26 -23 33 -10 28 26
-9 -28 33 -78 62 -46 25 -43 31 21 38 19 2 36 5 38 5 2 1 13 -3 25 -9z m-183
-4 c0 -2 -13 -11 -30 -20 -38 -19 -40 -11 -2 9 31 17 32 18 32 11z m-782 -12
c-15 -2 -42 -2 -60 0 -18 2 -6 4 27 4 33 0 48 -2 33 -4z m149 1 c-3 -3 -12 -4
-19 -1 -8 3 -5 6 6 6 11 1 17 -2 13 -5z m340 -1 c-20 -2 -52 -2 -70 0 -17 2 0
4 38 4 39 0 53 -2 32 -4z m-792 -13 c3 -5 1 -10 -4 -10 -6 0 -11 5 -11 10 0 6
2 10 4 10 3 0 8 -4 11 -10z m173 3 c-10 -2 -26 -2 -35 0 -10 3 -2 5 17 5 19 0
27 -2 18 -5z m720 0 c-10 -2 -26 -2 -35 0 -10 3 -2 5 17 5 19 0 27 -2 18 -5z
m-394 -44 c-15 -17 -19 -36 -19 -95 l0 -74 -35 -11 c-38 -12 -174 -81 -196
-100 -7 -6 -19 -7 -25 -3 -7 4 -9 3 -6 -3 10 -16 -106 -64 -168 -70 -69 -7
-97 0 -140 38 -57 50 -81 161 -51 234 30 72 65 80 416 94 107 4 206 9 219 9
24 2 24 2 5 -19z m167 -3 c37 -8 89 -26 117 -40 62 -31 117 -96 81 -96 -5 0
-8 4 -5 9 3 4 -1 17 -9 27 -14 18 -14 18 -16 -6 -1 -14 -1 -29 0 -34 1 -5 -8
-19 -20 -32 -39 -42 -145 -58 -183 -29 -35 26 -41 16 -10 -16 28 -30 31 -31
93 -25 77 8 116 27 141 69 17 26 20 28 20 11 0 -45 -66 -83 -158 -91 -66 -5
-68 -5 -103 28 -20 19 -48 44 -62 56 -23 18 -27 29 -27 75 0 62 22 102 51 95
11 -3 17 -1 13 4 -7 12 -2 11 77 -5z m399 -7 c30 -5 61 -16 70 -25 10 -11 10
-14 2 -9 -11 6 -12 3 -3 -13 18 -34 13 -119 -9 -162 -24 -48 -76 -74 -127 -64
-31 6 -33 5 -33 -23 l0 -29 60 6 c76 7 110 32 133 96 16 46 17 84 2 154 -5 22
-3 21 9 -5 21 -43 13 -135 -16 -187 -35 -64 -68 -83 -141 -83 l-62 0 -6 95
c-4 52 -11 108 -18 123 -6 16 -8 33 -5 39 4 6 3 8 -3 5 -10 -6 -38 40 -34 56
1 5 -3 6 -8 3 -5 -4 -11 -3 -13 1 -1 5 -19 15 -38 24 -34 15 -32 16 75 12 61
-3 135 -9 165 -14z m-1236 -74 c-29 -71 -9 -182 44 -239 15 -16 45 -37 66 -46
l39 -18 -45 -7 c-82 -12 -157 15 -183 66 -23 43 -30 120 -15 164 12 36 80 115
99 115 6 0 3 -16 -5 -35z m1423 -7 c69 -73 70 -204 2 -267 -32 -30 -92 -44
-151 -36 l-50 7 38 18 c48 21 98 76 114 125 13 38 9 145 -5 179 -7 16 -5 17
11 8 10 -6 29 -21 41 -34z m-348 -190 l-1 -63 -10 48 c-6 26 -15 47 -20 47 -6
0 -5 6 2 15 23 27 30 16 29 -47z m-39 -44 c0 -29 -5 -56 -12 -62 -10 -8 -12 0
-10 39 3 31 -1 56 -9 65 -10 13 -10 17 1 24 21 13 30 -7 30 -66z m-50 -6 c5
-24 4 -48 -1 -54 -5 -6 -6 -14 -2 -17 3 -4 1 -7 -5 -7 -7 0 -12 17 -12 43 0
23 -7 52 -15 64 -11 16 -12 22 -2 26 19 7 29 -7 37 -55z m-62 27 c7 -14 12
-45 11 -68 l-1 -42 -15 55 c-8 30 -19 61 -25 67 -8 10 -6 13 4 13 8 0 20 -11
26 -25z m-236 -290 c-4 -69 -3 -78 18 -100 13 -14 33 -25 45 -25 12 0 32 11
45 25 21 22 22 31 18 100 -4 63 -3 75 9 71 8 -4 27 -6 42 -6 l27 0 -4 -92 -3
-93 -50 -49 -50 -49 3 -93 3 -94 -45 0 -45 0 4 96 3 96 -51 52 -51 51 2 93 1
92 42 0 42 0 -5 -75z m-239 20 c45 -42 47 -45 47 -100 0 -48 -5 -62 -31 -95
l-31 -39 50 -95 50 -96 -46 0 -47 0 -39 85 c-36 79 -41 85 -69 85 l-30 0 5
-90 5 -90 -44 0 c-35 0 -44 3 -40 14 5 13 -6 266 -18 398 l-5 57 63 4 c138 7
129 9 180 -38z m743 -12 c-26 -221 -28 -275 -10 -314 21 -49 51 -52 83 -8 19
25 25 54 37 176 8 81 12 153 10 160 -4 10 8 13 45 13 45 0 50 -2 44 -17 -4
-10 -14 -88 -22 -173 -8 -85 -20 -162 -27 -171 -6 -9 -29 -36 -52 -62 -40 -46
-41 -46 -89 -39 -48 7 -50 9 -88 74 l-38 67 16 161 c8 89 13 165 10 170 -4 6
13 10 40 10 l47 0 -6 -47z m-1118 -12 c55 -44 50 -30 73 -228 l12 -102 -38
-50 c-33 -43 -45 -51 -83 -57 -47 -7 -66 0 -121 45 -35 28 -35 29 -52 172
l-17 144 39 52 c39 51 43 54 121 61 9 1 39 -16 66 -37z m1178 -129 c-8 -73
-16 -136 -20 -139 -15 -15 -17 12 -7 108 18 172 22 195 31 178 5 -8 3 -73 -4
-147z m424 122 c20 -7 80 -90 80 -112 0 -9 -12 -97 -27 -194 l-26 -178 -41 7
c-50 7 -50 7 -38 30 5 10 13 39 16 66 6 35 4 47 -6 48 -7 0 -34 4 -61 8 -45 7
-48 7 -54 -16 -3 -14 -6 -45 -7 -69 l-1 -44 -35 6 c-59 9 -61 11 -50 36 5 13
18 84 30 158 11 74 23 149 25 166 4 23 18 40 58 67 52 37 75 40 137 21z
m-1927 -31 l15 -38 -59 -8 c-42 -6 -59 -13 -59 -24 0 -17 58 -330 66 -356 6
-18 -1 -22 -53 -31 -32 -5 -33 -4 -33 27 0 17 -14 104 -30 192 -16 88 -30 162
-30 163 0 6 -84 -10 -102 -20 -16 -8 -18 -3 -18 36 0 43 2 45 33 51 17 3 75
14 127 24 130 26 126 26 143 -16z m857 -138 c50 -49 50 -49 50 -115 0 -36 -5
-83 -11 -105 l-11 -40 -34 40 c-19 22 -51 72 -71 112 l-38 72 28 29 c23 23 27
38 29 88 1 54 2 55 5 13 3 -39 11 -52 53 -94z m1342 119 c14 -4 16 -9 8 -25
-6 -11 -26 -86 -44 -167 -32 -141 -33 -148 -17 -177 21 -38 49 -42 82 -13 22
19 31 46 58 168 17 80 31 155 31 166 0 20 3 21 45 11 36 -8 44 -14 39 -26 -3
-9 -27 -112 -52 -228 -44 -197 -49 -213 -69 -213 -12 0 -23 5 -25 12 -2 6 -26
12 -54 13 -74 3 -86 10 -122 69 l-32 55 35 154 c19 86 35 169 35 187 0 30 1
31 33 25 17 -4 40 -9 49 -11z m38 -199 c-30 -140 -35 -154 -47 -142 -7 7 43
245 60 287 22 55 17 -11 -13 -145z m-2673 125 c39 -23 53 -37 58 -61 8 -37 1
-46 -43 -55 -28 -6 -32 -4 -32 14 0 23 -43 55 -68 50 -9 -2 -24 -17 -34 -33
-17 -30 -17 -33 11 -138 29 -111 45 -136 89 -137 31 0 65 55 50 83 -12 23 3
37 43 37 50 0 52 -51 4 -130 -28 -46 -42 -59 -74 -69 -38 -11 -43 -10 -93 21
-29 17 -55 35 -58 39 -3 5 -20 69 -39 144 l-33 135 33 56 c24 39 42 57 64 63
50 15 68 12 122 -19z m2984 -11 c34 -11 37 -14 28 -32 -6 -10 -31 -88 -55
-171 -24 -84 -46 -160 -49 -169 -5 -12 7 -20 63 -36 38 -12 79 -21 91 -21 l23
0 -23 -37 c-12 -21 -23 -39 -24 -40 -1 -2 -53 13 -116 31 -77 23 -113 38 -112
47 1 8 27 97 58 199 51 170 62 212 64 233 1 9 7 9 52 -4z m-3291 -48 c0 -21
107 -387 121 -412 6 -13 0 -18 -30 -28 -48 -14 -51 -14 -51 2 0 8 -27 103 -61
213 -33 109 -61 205 -62 213 -1 8 9 18 23 22 44 13 60 10 60 -10z m-66 -339
c6 -10 -31 -141 -45 -158 -5 -6 -27 -16 -49 -23 -40 -12 -42 -11 -103 31 l-62
44 -51 143 c-28 79 -56 152 -63 163 -10 15 -8 20 11 27 67 25 59 33 113 -127
37 -112 56 -154 79 -175 39 -37 66 -32 82 15 12 35 10 46 -37 180 -28 78 -55
148 -60 154 -7 9 2 16 33 26 l43 15 52 -153 c28 -85 54 -157 57 -162z m3726
273 c63 -21 119 -41 124 -45 4 -5 5 -26 1 -47 l-6 -40 -37 18 c-80 38 -71 47
-135 -144 -31 -94 -57 -178 -57 -184 0 -16 -17 -16 -59 -2 -24 9 -30 15 -25
28 12 27 124 345 124 353 0 4 -25 14 -55 23 -30 8 -55 18 -55 21 0 15 44 65
54 61 6 -2 63 -21 126 -42z m-3423 -17 c-3 -7 -5 -2 -5 12 0 14 2 19 5 13 2
-7 2 -19 0 -25z m-482 -137 c44 -119 55 -168 35 -156 -10 6 -90 245 -90 271 0
29 9 11 55 -115z m528 -1 c3 -11 2 -20 -3 -20 -8 0 -20 24 -20 41 0 17 17 1
23 -21z m2297 8 c0 -32 -15 -55 -23 -35 -7 19 2 57 14 57 5 0 9 -10 9 -22z"/>
<path d="M2405 3400 c-26 -5 -23 -7 25 -12 30 -3 64 -9 75 -13 l20 -7 -20 14
c-27 20 -63 27 -100 18z"/>
<path d="M2340 3006 c0 -2 8 -10 18 -17 15 -13 16 -12 3 4 -13 16 -21 21 -21
13z"/>
<path d="M1950 2510 c0 -17 -3 -29 -7 -27 -5 3 -8 -8 -8 -23 0 -15 3 -26 7
-24 4 2 9 0 13 -6 3 -5 11 -10 16 -10 15 0 7 113 -8 118 -9 2 -13 -7 -13 -28z"/>
<path d="M1997 2512 c2 -9 0 -36 -5 -59 -9 -39 -8 -43 15 -58 14 -9 26 -15 28
-13 11 10 7 119 -5 132 -17 22 -39 20 -33 -2z"/>
<path d="M2426 2527 c-15 -11 -19 -27 -19 -75 -1 -71 6 -84 32 -56 15 16 17
30 12 82 -6 60 -7 62 -25 49z"/>
<path d="M2473 2533 c-14 -5 -18 -94 -6 -106 15 -16 33 18 33 64 0 48 -3 52
-27 42z"/>
<path d="M1424 2782 c-23 -15 -36 -52 -23 -68 6 -8 16 -14 22 -14 6 0 3 6 -7
13 -19 14 -13 42 11 51 20 8 46 -13 39 -31 -3 -8 -1 -11 4 -8 17 10 11 44 -9
55 -23 12 -23 12 -37 2z"/>
<path d="M2987 2778 c-10 -5 -16 -20 -16 -36 1 -22 2 -23 6 -5 6 29 32 37 56
16 19 -17 20 -17 9 3 -14 27 -33 35 -55 22z"/>
<path d="M3030 2710 c-9 -6 -10 -10 -3 -10 6 0 15 5 18 10 8 12 4 12 -15 0z"/>
<path d="M2700 2436 c44 -12 60 -12 60 2 0 4 -24 8 -53 9 l-52 2 45 -13z"/>
<path d="M1530 2392 c0 -7 -16 -26 -35 -43 -23 -20 -35 -40 -35 -56 0 -24 1
-24 41 16 23 22 45 41 50 41 13 0 11 14 -6 36 -8 11 -14 14 -15 6z"/>
<path d="M1910 2300 c6 -11 16 -20 22 -20 6 0 3 9 -7 20 -10 11 -20 20 -22 20
-2 0 1 -9 7 -20z"/>
<path d="M1550 2170 c-9 -6 -10 -10 -3 -10 6 0 15 5 18 10 8 12 4 12 -15 0z"/>
<path d="M2877 2169 c7 -7 15 -10 18 -7 3 3 -2 9 -12 12 -14 6 -15 5 -6 -5z"/>
<path d="M2154 1646 c-13 -10 -20 -31 -24 -72 l-5 -58 -75 -27 c-41 -15 -109
-44 -150 -64 -141 -71 -215 -78 -265 -25 -15 15 -26 30 -25 32 1 1 -4 17 -10
33 -7 17 -10 54 -7 85 l5 55 -15 -34 c-13 -32 -15 -130 -3 -171 8 -25 57 -69
85 -76 15 -4 54 -4 88 -1 51 4 90 18 220 81 86 43 165 78 176 79 16 1 18 8 13
69 -3 47 -1 73 8 83 18 21 8 28 -16 11z"/>
<path d="M2305 1600 c-3 -6 1 -7 9 -4 18 7 21 14 7 14 -6 0 -13 -4 -16 -10z"/>
<path d="M1498 1437 c-3 -15 -2 -46 2 -70 10 -53 4 -59 -26 -24 -13 15 -24 24
-24 19 0 -17 50 -63 85 -78 19 -7 49 -14 66 -14 l32 0 -41 30 c-45 32 -72 76
-82 130 -6 34 -6 35 -12 7z"/>
<path d="M2932 1440 c-4 -48 -40 -109 -83 -139 l-42 -31 33 0 c47 0 112 34
133 69 25 42 21 47 -9 12 -29 -35 -50 -42 -34 -11 6 11 9 44 7 73 -2 29 -4 41
-5 27z"/>
<path d="M1830 970 l0 -70 44 0 c35 0 47 5 60 25 36 55 2 115 -67 115 l-37 0
0 -70z m70 1 c0 -6 -4 -13 -10 -16 -5 -3 -10 1 -10 9 0 9 5 16 10 16 6 0 10
-4 10 -9z"/>
<path d="M1488 983 l-26 -28 13 -108 c11 -88 18 -114 36 -133 29 -31 50 -30
79 1 23 24 23 25 10 137 -11 102 -15 115 -39 135 -34 29 -42 28 -73 -4z m62
-137 c10 -84 9 -108 -7 -93 -8 9 -21 98 -22 157 -1 73 17 33 29 -64z"/>
<path d="M3116 956 c-20 -16 -28 -36 -35 -85 -6 -36 -9 -66 -8 -68 2 -1 30 -4
63 -5 l59 -3 9 62 c7 51 6 67 -7 86 -22 34 -50 38 -81 13z m43 -63 c0 -10 -4
-27 -8 -37 -11 -28 -23 -4 -15 29 7 28 24 34 23 8z"/>
</g>
</svg>
